<?xml version="1.0" encoding="UTF-8" standalone="no"?>
<!DOCTYPE svg PUBLIC "-//W3C//DTD SVG 1.0//EN" "http://www.w3.org/TR/2001/REC-SVG-20010904/DTD/svg10.dtd">
<!-- Generato da Microsoft Visio 11.0, SVG Export, v1.0 cap.svg Pagina 1 -->
<svg xmlns="http://www.w3.org/2000/svg" xmlns:v="http://schemas.microsoft.com/visio/2003/SVGExtensions/" width="3.40583in"
		height="3.16961in" viewBox="0 0 245.22 228.212" xml:space="preserve" color-interpolation-filters="sRGB" class="st10">
	<v:documentProperties v:langID="1040" v:metric="true" v:viewMarkup="false">
		<v:userDefs>
			<v:ud v:nameU="MBSAAddinOutlineVisible" v:prompt="" v:val="VT0(1):26"/>
		</v:userDefs>
	</v:documentProperties>

	<style type="text/css">
	<![CDATA[
		.st1 {fill:#ffffff;stroke:none;stroke-linecap:round;stroke-linejoin:round;stroke-width:0.72}
		.st2 {fill:#cadaa9;stroke:none;stroke-linecap:round;stroke-linejoin:round;stroke-width:0.72}
		.st3 {fill:#facca7;stroke:none;stroke-linecap:round;stroke-linejoin:round;stroke-width:0.72}
		.st4 {fill:#c8d6e6;stroke:none;stroke-linecap:round;stroke-linejoin:round;stroke-width:0.72}
		.st5 {fill:none;stroke:none;stroke-linecap:round;stroke-linejoin:round;stroke-width:0.72}
		.st6 {fill:#000000;font-family:Arial;font-size:1.00001em;font-weight:bold}
		.st7 {fill:#7395bf;fill-opacity:0;stroke:#000000;stroke-linecap:round;stroke-linejoin:round;stroke-width:2.16}
		.st8 {font-size:1em}
		.st9 {fill:#000000;font-family:Arial;font-size:0.583328em;font-weight:bold}
		.st10 {fill:none;fill-rule:evenodd;font-size:12;overflow:visible;stroke-linecap:square;stroke-miterlimit:3}
	]]>
	</style>

	<g v:mID="0" v:index="1" v:groupContext="foregroundPage">
		<title>Pagina 1</title>
		<v:pageProperties v:drawingScale="0.0393701" v:pageScale="0.0393701" v:drawingUnits="24" v:shadowOffsetX="8.50394"
				v:shadowOffsetY="-8.50394"/>
		<g id="shape5-1" v:mID="5" v:groupContext="shape" transform="translate(0.72,-0.72)">
			<title>Foglio.5</title>
			<rect x="0" y="1.44" width="243.78" height="226.772" class="st1"/>
		</g>
		<g id="shape15-3" v:mID="15" v:groupContext="shape" transform="translate(337.53,223.894) rotate(115)">
			<title>Foglio.15</title>
			<path d="M1.98 228.21 C1.23 228.22 0.55 228.01 0.23 227.62 C-0.86 226.31 2.22 223.01 4.2 220.88 C6.35 218.57 7.2 217.63
						 8.39 216.47 C10.72 214.22 14.35 211.19 18.79 208.65 C21.94 206.85 25.49 205.3 28.43 204.17 C32.56 202.59
						 35.48 201.83 38.97 201.63 C40.59 201.54 42.35 201.58 45.42 201.09 C47.25 200.8 49.55 200.32 50.9 200.34
						 C55.16 200.39 49.89 205.37 46.61 208.79 C44.56 210.92 43.29 212.44 41.6 213.98 C40.38 215.09 38.94 216.22
						 37.53 217.23 C34.49 219.42 31.6 221.1 28.49 222.6 C26.23 223.69 23.85 224.69 21.27 225.49 C14.87 227.47
						 7.25 228.22 1.98 228.21 Z" class="st2"/>
		</g>
		<g id="shape16-5" v:mID="16" v:groupContext="shape" transform="translate(180.568,326.796) rotate(180)">
			<title>Foglio.16</title>
			<path d="M2.65 228.21 C-0.43 228.28 -0.14 227.7 0.21 227.08 C1.39 224.99 3.19 222.54 4.45 220.74 C5.82 218.79 6.57 217.6
						 7.78 216.27 C10.15 213.67 14.32 210.52 17.73 208.23 C20.15 206.61 22.19 205.41 24.6 204.25 C27.99 202.61
						 32.13 201.04 36.86 199.92 C39.06 199.39 41.4 198.97 43.91 198.82 C45.41 198.73 46.97 198.74 47.88 199.01
						 C50.75 199.88 47.11 203.42 44.25 206.63 C42.46 208.63 40.98 210.5 39.79 211.8 C38.93 212.75 38.21 213.39
						 37.31 214.16 C35.37 215.82 32.56 218.06 29.24 220.07 C26.81 221.53 24.12 222.86 21.7 223.89 C15.69 226.44
						 11.37 227.1 2.65 228.21 Z" class="st3"/>
		</g>
		<g id="shape14-7" v:mID="14" v:groupContext="shape" transform="translate(274.598,-22.8292) rotate(57)">
			<title>Foglio.14</title>
			<path d="M1.95 228 C-0.26 228.44 -0.11 228.19 0.14 227.82 C0.98 226.54 3 223.78 4.51 221.85 C6.13 219.76 7.15 218.65
						 8.52 217.37 C11.2 214.86 15.23 211.68 18.98 209.39 C21.64 207.77 24.15 206.59 26.91 205.55 C30.79 204.1
						 35.16 202.91 39.15 202.26 C41.01 201.95 42.79 201.76 44.86 201.38 C46.1 201.15 47.43 200.86 48.23 200.92
						 C50.74 201.11 47.82 204.84 45.25 207.98 C43.64 209.93 42.16 211.65 40.55 212.93 C39.38 213.86 38.14 214.56
						 36.86 215.41 C34.09 217.25 31.11 219.8 27.93 221.74 C25.61 223.15 23.19 224.23 20.64 225.1 C14.32 227.24
						 7.22 228.01 1.95 228 Z" class="st4"/>
		</g>
		<g id="shape6-9" v:mID="6" v:groupContext="shape" transform="translate(81.5074,-148.122)">
			<title>Foglio.6</title>
			<desc>Consistency</desc>
			<v:textBlock v:margins="rect(4,4,4,4)" v:tabSpace="42.5197"/>
			<v:textRect cx="40.3937" cy="214.038" width="80.79" height="28.3465"/>
			<rect x="0" y="199.865" width="80.7874" height="28.3465" class="st5"/>
			<text x="4.72" y="217.64" class="st6" v:langID="1040"><v:paragraph v:horizAlign="1"/><v:tabList/>Consistency</text>		</g>
		<g id="shape1-12" v:mID="1" v:groupContext="shape" transform="translate(74.4208,-99.9326)">
			<title>Foglio.1</title>
			<ellipse cx="56.6929" cy="171.519" rx="56.6929" ry="56.6929" class="st7"/>
		</g>
		<g id="shape10-14" v:mID="10" v:groupContext="shape" transform="translate(27.6491,-54.5783)">
			<title>Foglio.10</title>
			<desc>Availability</desc>
			<v:textBlock v:margins="rect(4,4,4,4)" v:tabSpace="42.5197"/>
			<v:textRect cx="38.9764" cy="214.038" width="77.96" height="28.3465"/>
			<rect x="0" y="199.865" width="77.9528" height="28.3465" class="st5"/>
			<text x="7.3" y="217.64" class="st6" v:langID="1040"><v:paragraph v:horizAlign="1"/><v:tabList/>Availability</text>		</g>
		<g id="shape11-17" v:mID="11" v:groupContext="shape" transform="translate(143.87,-57.4129)">
			<title>Foglio.11</title>
			<desc>Partition Tolerance</desc>
			<v:textBlock v:margins="rect(4,4,4,4)" v:tabSpace="42.5197"/>
			<v:textRect cx="35.4331" cy="214.038" width="70.87" height="28.3465"/>
			<rect x="0" y="199.865" width="70.8661" height="28.3465" class="st5"/>
			<text x="11.1" y="210.44" class="st6" v:langID="1040"><v:paragraph v:horizAlign="1"/><v:tabList/>Partition <tspan
						x="7.09" dy="1.2em" class="st8">Tolerance</tspan></text>		</g>
		<g id="shape12-21" v:mID="12" v:groupContext="shape" transform="translate(27.6491,-13.4759)">
			<title>Foglio.12</title>
			<ellipse cx="56.6929" cy="171.519" rx="56.6929" ry="56.6929" class="st7"/>
		</g>
		<g id="shape13-23" v:mID="13" v:groupContext="shape" transform="translate(122.61,-16.3106)">
			<title>Foglio.13</title>
			<ellipse cx="56.6929" cy="171.519" rx="56.6929" ry="56.6929" class="st7"/>
		</g>
		<g id="shape2-25" v:mID="2" v:groupContext="shape" transform="translate(88.0271,-99.9326)">
			<title>Foglio.2</title>
			<desc>CA</desc>
			<v:textBlock v:margins="rect(4,4,4,4)" v:tabSpace="42.5197"/>
			<v:textRect cx="16.2992" cy="214.038" width="32.6" height="28.3465"/>
			<rect x="0" y="199.865" width="32.5984" height="28.3465" class="st5"/>
			<text x="11.24" y="216.14" class="st9" v:langID="1040"><v:paragraph v:horizAlign="1"/><v:tabList/>CA</text>		</g>
		<g id="shape3-28" v:mID="3" v:groupContext="shape" transform="translate(140.326,-102.767)">
			<title>Foglio.3</title>
			<desc>CP</desc>
			<v:textBlock v:margins="rect(4,4,4,4)" v:tabSpace="42.5197"/>
			<v:textRect cx="11.1969" cy="218.475" width="22.4" height="19.4728"/>
			<rect x="0" y="208.739" width="22.3937" height="19.4728" class="st5"/>
			<text x="6.33" y="220.58" class="st9" v:langID="1040"><v:paragraph v:horizAlign="1"/><v:tabList/>CP</text>		</g>
		<g id="shape4-31" v:mID="4" v:groupContext="shape" transform="translate(119.35,-61.3814)">
			<title>Foglio.4</title>
			<desc>AP</desc>
			<v:textBlock v:margins="rect(4,4,4,4)" v:tabSpace="42.5197"/>
			<v:textRect cx="11.1969" cy="218.475" width="22.4" height="19.4728"/>
			<rect x="0" y="208.739" width="22.3937" height="19.4728" class="st5"/>
			<text x="6.33" y="220.58" class="st9" v:langID="1040"><v:paragraph v:horizAlign="1"/><v:tabList/>AP</text>		</g>
	</g>
</svg>
