<?xml version="1.0" encoding="UTF-8" standalone="no"?>
<!DOCTYPE svg PUBLIC "-//W3C//DTD SVG 1.0//EN" "http://www.w3.org/TR/2001/REC-SVG-20010904/DTD/svg10.dtd">
<!-- Generato da Microsoft Visio 11.0, SVG Export, v1.0 graph.svg Pagina 1 -->
<svg xmlns="http://www.w3.org/2000/svg" xmlns:v="http://schemas.microsoft.com/visio/2003/SVGExtensions/" width="4.6263in"
		height="3.40583in" viewBox="0 0 333.094 245.22" xml:space="preserve" color-interpolation-filters="sRGB" class="st16"
		xmlns:xlink="http://www.w3.org/1999/xlink">
	<v:documentProperties v:langID="1040" v:metric="true" v:viewMarkup="false">
		<v:userDefs>
			<v:ud v:nameU="MBSAAddinOutlineVisible" v:prompt="" v:val="VT0(1):26"/>
		</v:userDefs>
	</v:documentProperties>

	<style type="text/css">
	<![CDATA[
		.st1 {fill:#ffffff;stroke:none;stroke-linecap:round;stroke-linejoin:round;stroke-width:0.72}
		.st2 {fill:#7395bf;stroke:#000000;stroke-linecap:round;stroke-linejoin:round;stroke-width:0.72}
		.st3 {fill:none;stroke:none;stroke-linecap:round;stroke-linejoin:round;stroke-width:0.72}
		.st4 {fill:#000000;font-family:Arial;font-size:1.16666em}
		.st5 {fill:#000000;font-family:Arial;font-size:1.00001em}
		.st6 {font-size:1em}
		.st7 {stroke:#000000;stroke-dasharray:0.72,1.44;stroke-linecap:round;stroke-linejoin:round;stroke-width:0.72}
		.st8 {fill:#000000;stroke:#000000;stroke-linecap:round;stroke-linejoin:round;stroke-width:0.72}
		.st9 {marker-end:url(#mrkr13-33);marker-start:url(#mrkr10-31);stroke:#000000;stroke-dasharray:0.72,1.44;stroke-linecap:round;stroke-linejoin:round;stroke-width:0.72}
		.st10 {fill:#000000;fill-opacity:1;stroke:#000000;stroke-opacity:1;stroke-width:0.33333333333333}
		.st11 {fill:#000000;fill-opacity:1;stroke:#000000;stroke-opacity:1;stroke-width:0.28571428571429}
		.st12 {fill:#000000;font-family:Arial;font-size:0.75em}
		.st13 {stroke:#cc00ff;stroke-dasharray:0.72,1.44;stroke-linecap:round;stroke-linejoin:round;stroke-width:0.72}
		.st14 {fill:#cc00ff;font-family:Arial;font-size:1.16666em}
		.st15 {fill:#cc00ff;stroke:#cc00ff;stroke-linecap:round;stroke-linejoin:round;stroke-width:0.72}
		.st16 {fill:none;fill-rule:evenodd;font-size:12;overflow:visible;stroke-linecap:square;stroke-miterlimit:3}
	]]>
	</style>

	<defs id="Markers">
		<g id="lend10">
			<path
					d="M 0 0.75 C -0.414214 0.75 -0.75 0.414214 -0.75 -0 -0.75 -0.414214 -0.414214 -0.75 -0 -0.75 0.414214 -0.75 0.75 -0.414214 0.75 -0 0.75 0.414214 0.414214 0.75 0 0.75 Z "
					style="stroke:none"/>
		</g>
		<marker id="mrkr10-31" class="st10" v:arrowType="10" v:arrowSize="0" v:setback="1.75" refX="1.75" orient="auto"
				markerUnits="strokeWidth">
			<use xlink:href="#lend10" transform="scale(3) "/>
		</marker>
		<g id="lend13">
			<path d="M 3 1 L -0 0 L 3 -1 L 3 1 " style="stroke:none"/>
		</g>
		<marker id="mrkr13-33" class="st11" v:arrowType="13" v:arrowSize="1" v:setback="10" refX="-10" orient="auto"
				markerUnits="strokeWidth">
			<use xlink:href="#lend13" transform="scale(-3.5,-3.5) "/>
		</marker>
	</defs>
	<g v:mID="0" v:index="1" v:groupContext="foregroundPage">
		<title>Pagina 1</title>
		<v:pageProperties v:drawingScale="0.0393701" v:pageScale="0.0393701" v:drawingUnits="24" v:shadowOffsetX="8.50394"
				v:shadowOffsetY="-8.50394"/>
		<g id="shape139-1" v:mID="139" v:groupContext="shape" transform="translate(0.72,-0.72)">
			<title>Foglio.139</title>
			<rect x="0" y="1.44" width="331.654" height="243.78" class="st1"/>
		</g>
		<g id="shape2-3" v:mID="2" v:groupContext="shape" transform="translate(278.515,-165.129)">
			<title>Foglio.2</title>
			<ellipse cx="21.2598" cy="211.204" rx="21.2598" ry="34.0157" class="st2"/>
		</g>
		<g id="shape4-5" v:mID="4" v:groupContext="shape" transform="translate(132.531,-207.649)">
			<title>Foglio.4</title>
			<desc>Brothers</desc>
			<v:textBlock v:margins="rect(4,4,4,4)" v:tabSpace="42.5197"/>
			<v:textRect cx="43.937" cy="231.046" width="87.88" height="28.3465"/>
			<rect x="0" y="216.873" width="87.874" height="28.3465" class="st3"/>
			<text x="17.48" y="235.25" class="st4" v:langID="1040"><v:paragraph v:horizAlign="1"/><v:tabList/>Brothers</text>		</g>
		<g id="shape7-8" v:mID="7" v:groupContext="shape" transform="translate(272.846,-187.807)">
			<title>Foglio.7</title>
			<desc>Ares</desc>
			<v:textBlock v:margins="rect(4,4,4,4)" v:tabSpace="42.5197"/>
			<v:textRect cx="22.6772" cy="231.046" width="45.36" height="28.3465"/>
			<rect x="0" y="216.873" width="45.3543" height="28.3465" class="st3"/>
			<text x="10.34" y="234.65" class="st5" v:langID="1040"><v:paragraph v:horizAlign="1"/><v:tabList/>Ares</text>		</g>
		<g id="shape9-11" v:mID="9" v:groupContext="shape" transform="translate(-66.0886,-47.3641) rotate(-30)">
			<title>Foglio.9</title>
			<desc>KNOWS</desc>
			<v:textBlock v:margins="rect(4,4,4,4)" v:tabSpace="42.5197"/>
			<v:textRect cx="9.2126" cy="231.046" width="18.43" height="28.3465"/>
			<rect x="0" y="216.873" width="18.4252" height="28.3465" class="st3"/>
			<text x="4.54" y="201.65" class="st4" v:langID="1040"><v:paragraph v:horizAlign="1"/><v:tabList/>K<tspan x="4.16"
						dy="1.2em" class="st6">N</tspan><tspan x="4" dy="1.2em" class="st6">O</tspan><tspan x="4" dy="1.2em"
						class="st6">W</tspan><tspan x="4.54" dy="1.2em" class="st6">S</tspan></text>		</g>
		<g id="shape10-18" v:mID="10" v:groupContext="shape" transform="translate(278.549,293.199) rotate(180)">
			<title>Foglio.10</title>
			<path d="M0 245.22 L195.68 245.22" class="st7"/>
		</g>
		<g id="shape12-21" v:mID="12" v:groupContext="shape" transform="translate(513.53,44.9405) rotate(90)">
			<title>Foglio.12</title>
			<path d="M5.67 245.22 L0 245.22 L2.83 235.58 L5.67 245.22 Z" class="st8"/>
		</g>
		<g id="shape11-23" v:mID="11" v:groupContext="shape" transform="translate(-152.657,50.3263) rotate(-90)">
			<title>Foglio.11</title>
			<path d="M5.67 245.22 L0 245.22 L2.83 235.58 L5.67 245.22 Z" class="st8"/>
		</g>
		<g id="shape8-25" v:mID="8" v:groupContext="shape" transform="translate(338.154,372.171) rotate(-41.2504) scale(1,-1)">
			<title>Foglio.8</title>
			<path d="M0.15 243.97 L0.19 243.61 A170.861 58.6242 23.46 0 1 156.31 242.55 L156.65 242.67" class="st9"/>
		</g>
		<g id="shape13-34" v:mID="13" v:groupContext="shape" transform="translate(415.298,-126.607) rotate(30)">
			<title>Foglio.13</title>
			<path d="M5.67 245.22 L0 245.22 L2.83 235.58 L5.67 245.22 Z" class="st8"/>
		</g>
		<g id="shape14-36" v:mID="14" v:groupContext="shape" transform="translate(77.6908,15.811) rotate(-45)">
			<title>Foglio.14</title>
			<desc>KNOWS</desc>
			<v:textBlock v:margins="rect(4,4,4,4)" v:tabSpace="42.5197"/>
			<v:textRect cx="36.9272" cy="231.046" width="73.86" height="28.3465"/>
			<rect x="0" y="216.873" width="73.8544" height="28.3465" class="st3"/>
			<text x="10.48" y="235.25" class="st4" v:langID="1040"><v:paragraph v:horizAlign="1"/><v:tabList/>KNOWS</text>		</g>
		<g id="shape15-39" v:mID="15" v:groupContext="shape" transform="translate(0.609002,360.833) rotate(-138.75)">
			<title>Foglio.15</title>
			<path d="M0.1 243.96 L0.13 243.6 A183.31 74.7921 33.41 0 1 156.67 241.74 L156.99 241.91" class="st9"/>
		</g>
		<g id="shape3-46" v:mID="3" v:groupContext="shape" transform="translate(128.279,-12.0586)">
			<title>Foglio.3</title>
			<ellipse cx="36.8504" cy="208.369" rx="36.8504" ry="36.8504" class="st2"/>
		</g>
		<g id="shape6-48" v:mID="6" v:groupContext="shape" transform="translate(121.192,-34.7357)">
			<title>Foglio.6</title>
			<desc>Hephaestus</desc>
			<v:textBlock v:margins="rect(4,4,4,4)" v:tabSpace="42.5197"/>
			<v:textRect cx="35.4331" cy="231.046" width="70.87" height="28.3465"/>
			<rect x="0" y="216.873" width="70.8661" height="28.3465" class="st3"/>
			<text x="11.42" y="233.75" class="st12" v:langID="1040"><v:paragraph v:horizAlign="1"/><v:tabList/>Hephaestus</text>		</g>
		<g id="shape1-51" v:mID="1" v:groupContext="shape" transform="translate(14.8932,-165.129)">
			<title>Foglio.1</title>
			<ellipse cx="34.0157" cy="211.204" rx="34.0157" ry="34.0157" class="st2"/>
		</g>
		<g id="shape5-53" v:mID="5" v:groupContext="shape" transform="translate(20.5625,-184.972)">
			<title>Foglio.5</title>
			<desc>Apollo</desc>
			<v:textBlock v:margins="rect(4,4,4,4)" v:tabSpace="42.5197"/>
			<v:textRect cx="22.6772" cy="231.046" width="45.36" height="28.3465"/>
			<rect x="0" y="216.873" width="45.3543" height="28.3465" class="st3"/>
			<text x="6" y="234.65" class="st5" v:langID="1040"><v:paragraph v:horizAlign="1"/><v:tabList/>Apollo</text>		</g>
		<g id="shape16-56" v:mID="16" v:groupContext="shape" transform="translate(352.238,263.878) rotate(110)">
			<title>Foglio.16</title>
			<path d="M5.67 245.22 L0 245.22 L2.83 235.58 L5.67 245.22 Z" class="st8"/>
		</g>
		<g id="shape17-58" v:mID="17" v:groupContext="shape" transform="translate(1.59554,332.057) rotate(-137.185)">
			<title>Foglio.17</title>
			<path d="M0 235.02 C2.13 234.37 3.15 235.65 4.2 236.81 C16.43 250.32 31.85 246 45.95 236 C56.53 228.49 66.37 217.78 76.37
						 216.7 C82.68 216.02 89.06 219.17 95.21 222.43 C105.16 227.71 114.53 233.29 126.35 235.02" class="st13"/>
		</g>
		<g id="shape18-61" v:mID="18" v:groupContext="shape" transform="translate(156.977,-114.77) rotate(15)">
			<title>Foglio.18</title>
			<desc>Loves</desc>
			<v:textBlock v:margins="rect(4,4,4,4)" v:tabSpace="42.5197"/>
			<v:textRect cx="43.937" cy="231.046" width="87.88" height="28.3465"/>
			<rect x="0" y="216.873" width="87.874" height="28.3465" class="st3"/>
			<text x="25.26" y="235.25" class="st14" v:langID="1040"><v:paragraph v:horizAlign="1"/><v:tabList/>Loves</text>		</g>
		<g id="shape19-64" v:mID="19" v:groupContext="shape" transform="translate(-51.9649,-129.662) rotate(-30)">
			<title>Foglio.19</title>
			<path d="M5.67 245.22 L0 245.22 L2.83 235.58 L5.67 245.22 Z" class="st15"/>
		</g>
	</g>
</svg>
